<svg id="Layer_1" data-name="Layer 1" xmlns="http://www.w3.org/2000/svg" viewBox="0 0 1.23 0.99"><defs><style>.cls-1{fill:#1d1d1b;}</style></defs><title>twitterSVGp</title><path class="cls-1" d="M105.23,387.81h0l.05,0a.29.29,0,0,0,.05-.1l-.1,0h-.06a.26.26,0,0,0-.18-.08.25.25,0,0,0-.18.07.24.24,0,0,0-.08.18.27.27,0,0,0,0,.06h-.11a.85.85,0,0,1-.24-.1.77.77,0,0,1-.17-.15.26.26,0,0,0,0,.12.26.26,0,0,0,.06.17l0,0h0l-.11,0a.25.25,0,0,0,.08.18l.09.06h-.08a.26.26,0,0,0,.11.14.25.25,0,0,0,.13,0l-.07,0a.5.5,0,0,1-.23.06h-.07a.72.72,0,0,0,.85-.06.74.74,0,0,0,.21-.31.69.69,0,0,0,0-.23v0l.07-.06.06-.07h0Z" transform="translate(-104.15 -387.65)"/></svg>