<svg id="Layer_1" data-name="Layer 1" xmlns="http://www.w3.org/2000/svg" viewBox="0 0 3.81 3.09"><defs><style>.cls-1{fill:#1d1d1b;}</style></defs><title>twitterSVG</title><path class="cls-1" d="M107.52,386h0l.16-.13a.89.89,0,0,0,.17-.3,1.66,1.66,0,0,1-.31.15l-.18,0a.82.82,0,0,0-.57-.24.78.78,0,0,0-.55.22.75.75,0,0,0-.24.56.83.83,0,0,0,0,.18l-.34,0a2.64,2.64,0,0,1-.75-.31,2.4,2.4,0,0,1-.52-.47.8.8,0,0,0-.1.38.82.82,0,0,0,.18.52.6.6,0,0,0,.15.14h0a.76.76,0,0,1-.34-.09.79.79,0,0,0,.24.57.83.83,0,0,0,.27.17l.11,0-.09,0h-.26a.8.8,0,0,0,.33.42.76.76,0,0,0,.41.12l-.22.15a1.54,1.54,0,0,1-.72.19h-.21a2.23,2.23,0,0,0,2.64-.18,2.32,2.32,0,0,0,.65-1,2.15,2.15,0,0,0,.13-.71v-.14a1.25,1.25,0,0,0,.22-.19l.18-.22h0A1.32,1.32,0,0,1,107.52,386Z" transform="translate(-104.15 -385.55)"/></svg>